<?xml version="1.0" encoding="utf-8"?>
<!-- Generator: Adobe Illustrator 16.0.0, SVG Export Plug-In . SVG Version: 6.00 Build 0)  -->
<!DOCTYPE svg PUBLIC "-//W3C//DTD SVG 1.1//EN" "http://www.w3.org/Graphics/SVG/1.1/DTD/svg11.dtd">
<svg version="1.1" id="Layer_1" xmlns="http://www.w3.org/2000/svg" xmlns:xlink="http://www.w3.org/1999/xlink" x="0px" y="0px"
	 width="816.082px" height="912.091px" viewBox="0 0 816.082 912.091" enable-background="new 0 0 816.082 912.091"
	 xml:space="preserve">
<g>
	<path fill="#F78203" d="M408.045,442.716c-161.802,0-302.972,87.96-378.584,218.604c22.631,39.1,51.172,74.339,84.343,104.581
		c77.657,70.8,180.863,114.024,294.241,114.024c113.374,0,216.582-43.225,294.224-114.024
		c33.172-30.242,61.713-65.481,84.351-104.581C711.013,530.676,569.837,442.716,408.045,442.716z"/>
	<path fill="#FFFFFF" d="M569.182,661.319c0,88.99-72.15,161.134-161.137,161.134c-88.996,0-161.14-72.144-161.14-161.134
		c0-88.989,72.144-161.134,161.14-161.134C497.032,500.186,569.182,572.33,569.182,661.319z"/>
	<path fill="#F78203" d="M467.571,668.497c-36.839,0-66.706-29.862-66.706-66.706c0-15.792,5.512-30.272,14.68-41.698
		c-2.486-0.182-4.971-0.377-7.499-0.377c-56.117,0-101.606,45.486-101.606,101.604c0,56.118,45.489,101.604,101.606,101.604
		c56.114,0,101.598-45.485,101.598-101.604c0-2.531-0.193-5.018-0.372-7.506C497.85,662.985,483.352,668.497,467.571,668.497z"/>
	<path fill="#D89B03" d="M239.991,202.953L29.461,426.481c0.186,4.611,0.306,9.244,0.306,13.904c0,4.654-0.12,9.294-0.306,13.904
		v141.808c63.165-77.108,149.395-134.551,248.15-161.828l92.817-92.816L239.991,202.953z"/>
	<path fill="#FFBC00" d="M579.465,119.524L370.429,341.453l-92.817,92.816c41.523-11.465,85.248-17.64,130.434-17.64
		c152.635,0,288.847,69.94,378.574,179.468v-27.701V339.479L579.465,119.524z"/>
	<path fill="#F78203" d="M461.439,110.168c0,43.079-34.929,78.001-78.007,78.001c-43.083,0-77.997-34.922-77.997-78.001
		c0-43.08,34.914-78.002,77.997-78.002C426.51,32.166,461.439,67.088,461.439,110.168z"/>
</g>
</svg>
