<?xml version="1.0" encoding="utf-8"?>
<!-- Generator: Adobe Illustrator 16.0.0, SVG Export Plug-In . SVG Version: 6.00 Build 0)  -->
<!DOCTYPE svg PUBLIC "-//W3C//DTD SVG 1.1//EN" "http://www.w3.org/Graphics/SVG/1.1/DTD/svg11.dtd">
<svg version="1.1" id="Layer_1" xmlns="http://www.w3.org/2000/svg" xmlns:xlink="http://www.w3.org/1999/xlink" x="0px" y="0px"
	 width="1014.102px" height="1128.113px" viewBox="0 0 1014.102 1128.113" enable-background="new 0 0 1014.102 1128.113"
	 xml:space="preserve">
<g>
	<g>
		<path fill="#F78203" d="M507.058,433.947c-161.801,0-302.972,87.96-378.583,218.604c22.63,39.1,51.172,74.339,84.342,104.581
			c77.657,70.8,180.864,114.024,294.241,114.024c113.374,0,216.582-43.225,294.224-114.024
			c33.172-30.242,61.713-65.481,84.351-104.581C810.025,521.907,668.85,433.947,507.058,433.947z"/>
		<path fill="#FFFFFF" d="M668.194,652.55c0,88.99-72.15,161.134-161.137,161.134c-88.996,0-161.139-72.144-161.139-161.134
			c0-88.989,72.144-161.134,161.139-161.134C596.044,491.417,668.194,563.561,668.194,652.55z"/>
		<path fill="#F78203" d="M566.583,659.728c-36.839,0-66.706-29.862-66.706-66.706c0-15.792,5.511-30.272,14.679-41.698
			c-2.486-0.182-4.971-0.377-7.499-0.377c-56.117,0-101.606,45.486-101.606,101.604c0,56.118,45.49,101.604,101.606,101.604
			c56.114,0,101.598-45.485,101.598-101.604c0-2.531-0.193-5.018-0.372-7.506C596.862,654.216,582.364,659.728,566.583,659.728z"/>
		<path fill="#D89B03" d="M339.003,194.184L128.474,417.712c0.185,4.611,0.306,9.244,0.306,13.904c0,4.654-0.121,9.294-0.306,13.904
			v141.808c63.165-77.108,149.394-134.551,248.15-161.828l92.817-92.816L339.003,194.184z"/>
		<path fill="#FFBC00" d="M678.478,110.755L469.442,332.684L376.625,425.5c41.523-11.465,85.248-17.64,130.433-17.64
			c152.635,0,288.847,69.94,378.574,179.468v-27.701V330.71L678.478,110.755z"/>
		<path fill="#F78203" d="M560.451,101.399c0,43.079-34.929,78.001-78.007,78.001c-43.083,0-77.997-34.922-77.997-78.001
			c0-43.08,34.915-78.002,77.997-78.002C525.522,23.397,560.451,58.319,560.451,101.399z"/>
	</g>
	<g>
		<path fill="#F78203" d="M82.817,1089.028c13.017,0,22.075-2.266,27.195-6.797c5.106-4.534,7.663-10.162,7.663-16.906
			c0-6.736-3.02-12.142-9.058-16.213c-6.046-4.062-13.48-8.07-22.311-12.022l-18.131-7.669
			c-13.942-6.044-24.867-12.901-32.764-20.569c-7.904-7.671-11.857-17.194-11.857-28.585c0-7.668,1.625-14.345,4.886-20.043
			c3.248-5.693,7.841-10.515,13.765-14.465c5.931-3.95,12.954-6.916,21.093-8.891c8.132-1.973,16.962-2.963,26.491-2.963
			c14.406,0,26.198,1.277,35.385,3.834c9.179,2.561,16.086,6.047,20.743,10.457c4.181,3.955,6.623,9.646,7.321,17.08
			c0.691,7.442,1.04,15.573,1.04,24.403h-12.199c-1.859-11.153-6.395-20.621-13.594-28.412
			c-7.208-7.785-17.782-11.675-31.725-11.675c-10.454,0-18.009,2.264-22.659,6.797c-4.65,4.531-6.973,10.169-6.973,16.905
			c0,6.274,2.208,11.329,6.623,15.165c4.415,3.834,10.461,7.381,18.131,10.631l20.915,8.717
			c16.037,6.744,28.114,13.769,36.253,21.088c8.132,7.322,12.198,17.143,12.198,29.459c0,7.668-1.802,14.352-5.398,20.042
			c-3.61,5.696-8.544,10.518-14.818,14.466c-6.274,3.957-13.765,6.918-22.481,8.891c-8.717,1.973-18.302,2.963-28.763,2.963
			c-14.413,0-26.206-1.278-35.378-3.834c-9.186-2.554-16.1-6.04-20.744-10.457c-4.18-3.95-6.623-9.644-7.32-17.082
			c-0.698-7.434-1.047-15.567-1.047-24.404h12.199c1.858,11.156,6.395,20.631,13.601,28.415
			C58.299,1085.14,68.873,1089.028,82.817,1089.028z"/>
		<path fill="#F78203" d="M378.074,1047.546l42.527-110.156h18.48l-64.141,167.325h-16.036l-45.319-97.956l-40.434,97.956h-15.688
			l-56.828-127.238c-5.811-13.013-11.15-22.189-16.029-27.536c-4.884-5.345-10.346-8.247-16.386-8.717v-6.622
			c0.463,0,1.445-0.059,2.935-0.175c1.502-0.113,3.112-0.174,4.835-0.174c1.73,0,3.454-0.054,5.191-0.175
			c1.723-0.113,2.934-0.174,3.625-0.174c7.37,0,14.05,0.697,20.046,2.089c5.988,1.396,11.514,3.721,16.584,6.972
			c5.063,3.258,9.734,7.67,13.994,13.25c4.258,5.574,8.346,12.666,12.27,21.262l30.058,66.583l23.628-55.774l-4.885-10.809
			c-5.812-12.778-11.102-21.901-15.859-27.362c-4.764-5.458-9.705-8.421-14.812-8.891v-6.622c0.926,0,2.962-0.114,6.096-0.349
			c3.141-0.228,5.518-0.349,7.149-0.349c7.435,0,14.342,0.639,20.737,1.914c6.395,1.283,12.376,3.607,17.952,6.977
			c5.583,3.367,10.688,7.84,15.339,13.42c4.65,5.574,8.944,12.666,12.896,21.262L378.074,1047.546z"/>
		<path fill="#F78203" d="M524.832,933.905c22.773,0,40.376,6.044,52.817,18.125c12.427,12.088,18.644,30.448,18.644,55.08v94.12
			h-29.624l-12.206-15.688h-1.745c-2.557,3.721-5.81,6.972-9.756,9.763c-3.263,2.561-7.557,4.764-12.896,6.623
			c-5.354,1.854-11.742,2.788-19.176,2.788c-19.291,0-33.989-4.359-44.094-13.071c-10.112-8.716-15.168-20.045-15.168-33.989
			c0-8.366,1.396-15.741,4.188-22.137c2.785-6.386,7.719-11.852,14.812-16.38c7.086-4.534,16.678-7.959,28.762-10.287
			c12.077-2.319,27.537-3.486,46.357-3.486h5.235c0-20.916-2.914-35.435-8.716-43.575c-5.813-8.131-13.945-12.197-24.404-12.197
			c-3.953,0-7.727,0.404-11.328,1.218c-3.605,0.817-6.916,2.384-9.935,4.706c-3.02,2.325-5.698,5.523-8.02,9.585
			c-2.321,4.071-4.179,9.36-5.575,15.862h-19.171c0-6.037,0.399-12.202,1.217-18.475c0.813-6.273,3.312-11.732,7.492-16.382
			c4.188-4.647,11.102-7.846,20.744-9.591C502.928,934.776,513.445,933.905,524.832,933.905z M550.981,1021.053h-5.235
			c-16.727,0-28.754,3.056-36.076,9.16c-7.318,6.106-10.978,15.383-10.978,27.829c0,9.864,2.028,17.319,6.103,22.368
			c4.057,5.05,9.583,7.573,16.554,7.573c5.343,0,9.813-1.171,13.418-3.521c3.602-2.347,6.679-4.936,9.241-7.756
			c2.786-3.281,5.107-7.155,6.974-11.622V1021.053z"/>
		<path fill="#F78203" d="M717.252,950.635c-7.441,0-13.885,1.053-19.348,3.154c-5.461,2.104-9.707,4.668-12.719,7.703
			c0.229,1.405,0.577,3.039,1.039,4.9c0.463,1.636,0.813,3.623,1.048,5.953c0.229,2.336,0.349,4.908,0.349,7.711v121.173h-45.317
			V982.708c0-5.11-0.293-9.815-0.869-14.122c-0.586-4.296-1.689-8.015-3.312-11.151c-1.632-3.14-4.066-5.519-7.322-7.147
			c-3.254-1.622-7.44-2.44-12.546-2.44h-3.49V937.39h34.51c7.903,0,14.122,0.99,18.65,2.963c4.536,1.979,8.075,5.289,10.632,9.935
			c2.094-1.857,4.584-3.776,7.498-5.752c2.905-1.973,6.389-3.713,10.453-5.23c4.066-1.506,8.774-2.789,14.121-3.832
			c5.343-1.046,11.621-1.568,18.822-1.568c21.849,0,38.348,5.054,49.506,15.165c11.151,10.108,16.729,26.435,16.729,48.976v103.185
			h-45.313V997.218c0-17.045-3.139-29.068-9.413-36.077C734.685,954.137,726.781,950.635,717.252,950.635z"/>
		<path fill="#F78203" d="M881.089,1032.907v68.323h-45.318V916.474c0-10.457-1.454-18.878-4.359-25.271
			c-2.904-6.393-9.585-9.59-20.038-9.59h-3.49v-10.457h41.83c6.047,0,11.102,0.758,15.168,2.269c4.06,1.513,7.319,4.006,9.762,7.494
			c2.438,3.485,4.125,8.138,5.05,13.944c0.927,5.81,1.396,13.018,1.396,21.611v99.348l42.179-51.59
			c3.488-4.183,6.913-7.956,10.283-11.328c3.366-3.37,6.971-6.219,10.81-8.542c3.832-2.322,8.134-4.063,12.897-5.227
			c4.764-1.162,10.161-1.745,16.205-1.745h6.98v9.065c-6.98,0-13.252,1.392-18.829,4.18c-5.574,2.791-10.924,7.206-16.036,13.248
			l-33.811,41.133l46.366,61.354c6.037,8.136,11.728,14.294,17.074,18.477c5.35,4.181,10.462,6.855,15.34,8.015v8.368
			c-1.859,0.925-5.227,1.745-10.104,2.439c-4.887,0.697-9.536,1.046-13.951,1.046c-9.756,0-18.941-2.035-27.537-6.1
			c-8.603-4.063-16.735-11.328-24.396-21.785L881.089,1032.907z"/>
	</g>
</g>
</svg>
